<svg width="100" height="100" viewBox="0 0 100 100" fill="none" xmlns="http://www.w3.org/2000/svg">
<rect width="100" height="100" fill="white"/>
<path d="M76.1625 46.75H23.8375C22.1323 46.75 20.75 48.1324 20.75 49.8375V50.1625C20.75 51.8677 22.1323 53.25 23.8375 53.25H76.1625C77.8677 53.25 79.25 51.8677 79.25 50.1625V49.8375C79.25 48.1324 77.8677 46.75 76.1625 46.75Z" fill="#27303B"/>
<path d="M76.1625 63H23.8375C22.1323 63 20.75 64.3823 20.75 66.0875V66.4125C20.75 68.1176 22.1323 69.5 23.8375 69.5H76.1625C77.8677 69.5 79.25 68.1176 79.25 66.4125V66.0875C79.25 64.3823 77.8677 63 76.1625 63Z" fill="#27303B"/>
<path d="M76.1625 30.5H23.8375C22.1323 30.5 20.75 31.8823 20.75 33.5875V33.9125C20.75 35.6177 22.1323 37 23.8375 37H76.1625C77.8677 37 79.25 35.6177 79.25 33.9125V33.5875C79.25 31.8823 77.8677 30.5 76.1625 30.5Z" fill="#27303B"/>
</svg>
