<svg width="100" height="100" viewBox="0 0 100 100" fill="none" xmlns="http://www.w3.org/2000/svg">
<rect width="100" height="100" fill="white"/>
<path d="M54.9744 49.997L70.1446 34.862C70.809 34.1977 71.1822 33.2966 71.1822 32.3571C71.1822 31.4176 70.809 30.5166 70.1446 29.8523C69.4803 29.1879 68.5793 28.8147 67.6398 28.8147C66.7003 28.8147 65.7992 29.1879 65.1349 29.8523L49.9999 45.0225L34.8649 29.8523C34.2006 29.1879 33.2996 28.8147 32.3601 28.8147C31.4206 28.8147 30.5195 29.1879 29.8552 29.8523C29.1909 30.5166 28.8177 31.4176 28.8177 32.3571C28.8177 33.2966 29.1909 34.1977 29.8552 34.862L45.0255 49.997L29.8552 65.132C29.5245 65.4599 29.2621 65.8501 29.083 66.2801C28.9039 66.71 28.8116 67.1711 28.8116 67.6368C28.8116 68.1026 28.9039 68.5637 29.083 68.9936C29.2621 69.4235 29.5245 69.8137 29.8552 70.1417C30.1832 70.4724 30.5734 70.7348 31.0033 70.9139C31.4332 71.093 31.8943 71.1853 32.3601 71.1853C32.8258 71.1853 33.2869 71.093 33.7168 70.9139C34.1468 70.7348 34.537 70.4724 34.8649 70.1417L49.9999 54.9714L65.1349 70.1417C65.4629 70.4724 65.8531 70.7348 66.283 70.9139C66.7129 71.093 67.174 71.1853 67.6398 71.1853C68.1055 71.1853 68.5666 71.093 68.9965 70.9139C69.4265 70.7348 69.8167 70.4724 70.1446 70.1417C70.4753 69.8137 70.7378 69.4235 70.9169 68.9936C71.096 68.5637 71.1882 68.1026 71.1882 67.6368C71.1882 67.1711 71.096 66.71 70.9169 66.2801C70.7378 65.8501 70.4753 65.4599 70.1446 65.132L54.9744 49.997Z" fill="#007AEC"/>
</svg>
